PathFileType	4	(X/Y/Z)	/Users/itak/Documents/Research/Walk-IL/dataset/trc/00168_00008.trc
DataRate	CameraRate	NumFrames	NumMarkers	Units	OrigDataRate	OrigDataStartFrame	OrigNumFrames
100.000000	100.000000	4	53	mm	100.000000	443	709
Frame#	Time	RPSI			LPSI			L3			STRN			T10			C7			CLAV			RBAK			LBAK			LSHO			LUPA			LAEL			LAOL			LWTS			LWPS			LFRA			LIFD			LHPS			LHTS			RSHO			RUPA			RAEL			RAOL			RWTS			RWPS			RFRA			RIFD			RHTS			RHPS			RBHD			LFHD			RFHD			LBHD			LHIP			RHIP			RASI			LASI			LKNE			LTHI			LANK			LTIP			LTOE			LMT1			LMT5			LHEE			RKNE			RTHI			RANK			RTIP			RTOE			RMT1			RMT5			RHEE			
		X1	Y1	Z1	X2	Y2	Z2	X3	Y3	Z3	X4	Y4	Z4	X5	Y5	Z5	X6	Y6	Z6	X7	Y7	Z7	X8	Y8	Z8	X9	Y9	Z9	X10	Y10	Z10	X11	Y11	Z11	X12	Y12	Z12	X13	Y13	Z13	X14	Y14	Z14	X15	Y15	Z15	X16	Y16	Z16	X17	Y17	Z17	X18	Y18	Z18	X19	Y19	Z19	X20	Y20	Z20	X21	Y21	Z21	X22	Y22	Z22	X23	Y23	Z23	X24	Y24	Z24	X25	Y25	Z25	X26	Y26	Z26	X27	Y27	Z27	X28	Y28	Z28	X29	Y29	Z29	X30	Y30	Z30	X31	Y31	Z31	X32	Y32	Z32	X33	Y33	Z33	X34	Y34	Z34	X35	Y35	Z35	X36	Y36	Z36	X37	Y37	Z37	X38	Y38	Z38	X39	Y39	Z39	X40	Y40	Z40	X41	Y41	Z41	X42	Y42	Z42	X43	Y43	Z43	X44	Y44	Z44	X45	Y45	Z45	X46	Y46	Z46	X47	Y47	Z47	X48	Y48	Z48	X49	Y49	Z49	X50	Y50	Z50	X51	Y51	Z51	X52	Y52	Z52	X53	Y53	Z53	

444	4.43	-741.3936157226562	1055.258422851562	234.3895874023438	-759.343994140625	1057.642578125	112.1947555541992	-747.2371826171875	1096.248413085938	177.3705902099609	-484.661865234375	1294.503051757812	120.1060104370117	-774.1587524414062	1250.665405273438	170.8335266113281	-709.5447387695312	1517.068969726562	129.1216430664062	-513.8964233398438	1407.225463867188	106.1929397583008	-757.8055419921875	1350.9814453125	260.23291015625	-734.2849731445312	1484.25537109375	31.78405570983887	-671.928955078125	1463.456909179688	-56.65854263305664	-717.60107421875	1328.575073242188	-115.3184204101562	-711.5993041992188	1112.63427734375	-127.5258941650391	-738.6327514648438	1098.801391601562	-43.90475845336914	-594.8237915039062	882.2769775390625	-121.8423385620117	-684.3539428710938	860.0505981445312	-138.2801818847656	-701.407958984375	1001.961730957031	-141.8686676025391	-572.159423828125	698.8721923828125	-103.2245101928711	-661.1541748046875	790.760009765625	-140.0232849121094	-589.24853515625	804.0228881835938	-143.8898468017578	-617.9312744140625	1507.312866210938	297.2047424316406	-624.5579833984375	1445.340454101562	373.3978881835938	-620.0452270507812	1160.8779296875	453.2277221679688	-644.4745483398438	1146.240234375	358.7577209472656	-461.6027526855469	950.635009765625	408.9198303222656	-520.3436889648438	926.1917114257812	470.7794799804688	-584.36767578125	1090.889770507812	468.0746459960938	-425.7057189941406	766.4872436523438	385.9136352539062	-420.6787414550781	862.2289428710938	413.2604675292969	-481.5350341796875	848.1456909179688	463.0672302246094	-649.1179809570312	1682.367309570312	180.0834808349609	-515.0938720703125	1720.932861328125	11.61376285552979	-487.632568359375	1733.1220703125	138.1028137207031	-685.3316040039062	1677.785522460938	45.92484664916992	-670.254150390625	1002.627502441406	-21.0421142578125	-581.0159301757812	997.7699584960938	343.2899475097656	-506.1455078125	1030.050659179688	280.4024658203125	-539.2964477539062	1032.107177734375	25.51879692077637	-501.4676513671875	515.5806274414062	-2.477062940597534	-548.77001953125	652.1329345703125	-28.94394111633301	-482.4678955078125	32.90116119384766	-4.598975658416748	-493.8499755859375	282.8616333007812	-16.03921508789062	-285.698486328125	113.881217956543	2.243603706359863	-325.5954284667969	100.5569229125977	56.04933166503906	-377.2615051269531	48.57769393920898	-44.89601898193359	-531.8364868164062	30.56084442138672	68.4803466796875	-627.4932861328125	497.4926147460938	322.2548217773438	-553.098388671875	763.0103759765625	342.787353515625	-840.7167358398438	40.12040328979492	330.9611511230469	-649.4533081054688	373.5965576171875	312.90185546875	-622.380615234375	51.3882942199707	300.3000793457031	-673.260498046875	45.82543182373047	255.1006011962891	-727.97998046875	31.97723197937012	368.6305541992188	-890.1284790039062	48.07733154296875	260.9824523925781	
445	4.44	-748.9038696289062	1055.321533203125	236.9479370117188	-766.752685546875	1057.23046875	114.795768737793	-754.5138549804688	1096.106201171875	179.8121337890625	-491.1179504394531	1293.776733398438	122.6290740966797	-780.8749389648438	1250.921997070312	173.1884613037109	-715.2568969726562	1517.053100585938	131.4206848144531	-519.9387817382812	1406.611206054688	108.687385559082	-764.0944213867188	1351.229370117188	262.6103210449219	-740.0540771484375	1484.301635742188	34.05671691894531	-677.6917724609375	1463.226684570312	-54.34619903564453	-723.247314453125	1328.209838867188	-112.7256240844727	-716.8978881835938	1112.193481445312	-124.0200576782227	-743.93603515625	1098.58154296875	-40.36056900024414	-599.7205200195312	882.023193359375	-117.4731216430664	-689.2206420898438	859.59912109375	-134.0729217529297	-706.5660400390625	1001.490478515625	-138.0028533935547	-576.8195190429688	698.677734375	-98.27212524414062	-665.9114990234375	790.331298828125	-135.5490264892578	-594.009765625	803.698974609375	-139.2635803222656	-623.7673950195312	1507.099975585938	299.5858459472656	-630.4791870117188	1445.179931640625	375.8311157226562	-625.9240112304688	1160.581420898438	455.9140014648438	-650.6817016601562	1146.074340820312	361.513916015625	-466.1257934570312	951.642822265625	409.904052734375	-524.4173583984375	926.3067626953125	471.8188781738281	-589.8345947265625	1090.551513671875	470.3524169921875	-428.618896484375	768.0430297851562	385.6270446777344	-424.4349670410156	863.61474609375	413.5826110839844	-484.9153442382812	848.6563720703125	463.462646484375	-654.360107421875	1682.115234375	182.4501495361328	-520.3654174804688	1720.275146484375	13.8486909866333	-492.8093566894531	1732.52001953125	140.3186798095703	-690.667236328125	1677.464965820312	48.33083724975586	-677.8848876953125	1001.526062011719	-18.25504112243652	-588.5858764648438	998.1422119140625	346.1376342773438	-513.6210327148438	1029.837646484375	283.1144104003906	-546.9959106445312	1031.19482421875	28.12677764892578	-506.9267272949219	515.5504150390625	-0.5851621627807617	-555.287353515625	651.6109008789062	-26.72948455810547	-482.9997863769531	33.2535514831543	-4.377682685852051	-497.2182006835938	283.1063842773438	-14.8808069229126	-287.1609802246094	116.6905899047852	2.405423879623413	-326.8514709472656	102.6218643188477	56.23504638671875	-377.9720458984375	50.43636703491211	-44.74969100952148	-532.1339721679688	29.85362434387207	68.76763153076172	-634.9823608398438	497.8503723144531	323.5208129882812	-560.6475830078125	763.24072265625	345.30517578125	-841.583251953125	38.23719787597656	330.8940734863281	-654.9852905273438	373.8406677246094	313.2910766601562	-623.3301391601562	52.37226104736328	299.8216552734375	-674.068115234375	45.77252960205078	254.7189636230469	-728.4599609375	32.07350921630859	368.4779357910156	-891.0758666992188	44.82168579101562	260.7993774414062	
446	4.45	-756.4593505859375	1055.359130859375	239.4613494873047	-774.1616821289062	1056.783935546875	117.3469543457031	-761.7982177734375	1095.933227539062	182.1940765380859	-497.6054077148438	1293.032592773438	125.084831237793	-787.6005249023438	1251.198608398438	175.4740905761719	-720.9822998046875	1517.069213867188	133.6661987304688	-526.0094604492188	1405.990234375	111.1144790649414	-770.4097900390625	1351.48291015625	264.9267578125	-745.8302612304688	1484.383911132812	36.29167938232422	-683.5037841796875	1463.027099609375	-52.09700775146484	-728.9915771484375	1327.885498046875	-110.1874008178711	-722.2933349609375	1111.770263671875	-120.5544204711914	-749.3056640625	1098.382446289062	-36.85369491577148	-604.61865234375	881.8411254882812	-113.1136016845703	-694.065185546875	859.1699829101562	-129.8720092773438	-711.7785034179688	1001.028381347656	-134.1545715332031	-581.3651123046875	698.579345703125	-93.32501220703125	-670.6072387695312	789.9449462890625	-131.0875091552734	-598.7174072265625	803.4594116210938	-134.6395721435547	-629.6069946289062	1506.868774414062	301.9222106933594	-636.4124145507812	1444.993408203125	378.2160949707031	-631.8776245117188	1160.267944335938	458.5906066894531	-656.993896484375	1145.880126953125	364.2669677734375	-470.8390197753906	952.5878295898438	410.8689575195312	-528.655029296875	926.3976440429688	472.87060546875	-595.4064331054688	1090.1943359375	472.6199035644531	-431.8326110839844	769.53125	385.3233337402344	-428.4368591308594	864.92724609375	413.8741760253906	-488.5301208496094	849.1260375976562	463.8646545410156	-659.5779418945312	1681.861938476562	184.8109893798828	-525.5828857421875	1719.652954101562	16.0960750579834	-497.937255859375	1731.904418945312	142.5522918701172	-695.9617309570312	1677.195434570312	50.72174453735352	-685.4605102539062	1000.355285644531	-15.49406242370605	-596.2344360351562	998.5789794921875	348.9736328125	-521.1044921875	1029.623901367188	285.8196411132812	-554.6781005859375	1030.243774414062	30.70403861999512	-512.4666137695312	515.48388671875	1.263278722763062	-561.873291015625	651.0321655273438	-24.52178192138672	-483.596923828125	33.60413360595703	-4.170427322387695	-500.6894226074219	283.3383178710938	-13.75289058685303	-288.7489929199219	119.5742721557617	2.543094873428345	-328.2082824707031	104.7615280151367	56.39741897583008	-378.76025390625	52.32682418823242	-44.63984680175781	-532.4166870117188	29.11535453796387	69.05747222900391	-641.8346557617188	498.2223510742188	324.7115173339844	-567.9857788085938	763.5994262695312	347.6838684082031	-842.3614501953125	36.72000503540039	330.94189453125	-659.9583740234375	374.1130676269531	313.5699768066406	-624.2612915039062	53.32893753051758	299.2605285644531	-674.8778686523438	45.73577880859375	254.3126068115234	-728.9580688476562	32.2515754699707	368.2452087402344	-891.9830322265625	42.08146286010742	260.7565612792969	
447	4.46	-764.0380859375	1055.375854492188	241.903564453125	-781.552978515625	1056.312866210938	119.8197021484375	-769.072021484375	1095.733154296875	184.4872894287109	-504.1094970703125	1292.287353515625	127.4738006591797	-794.3294677734375	1251.50830078125	177.6792297363281	-726.710693359375	1517.1328125	135.8422393798828	-532.0908813476562	1405.376098632812	113.4705581665039	-776.7529907226562	1351.754638671875	267.1686096191406	-751.5968017578125	1484.51123046875	38.47080612182617	-689.3348999023438	1462.852905273438	-49.92108917236328	-734.8212280273438	1327.589965820312	-107.7054824829102	-727.7938842773438	1111.346435546875	-117.1510772705078	-754.7535400390625	1098.189331054688	-33.40740585327148	-609.5261840820312	881.7241821289062	-108.7810897827148	-698.8927001953125	858.7525634765625	-125.6844940185547	-717.0489501953125	1000.557434082031	-130.3397521972656	-585.79150390625	698.5728149414062	-88.43341827392578	-675.2430419921875	789.5949096679688	-126.6564712524414	-603.3743286132812	803.3043823242188	-130.0455932617188	-635.4468994140625	1506.630004882812	304.2105712890625	-642.354248046875	1444.782958984375	380.5474548339844	-637.88916015625	1159.935791015625	461.2371520996094	-663.3895263671875	1145.649658203125	366.9963989257812	-475.7437133789062	953.4520874023438	411.8215942382812	-533.0698852539062	926.45849609375	473.9403991699219	-601.0753784179688	1089.820556640625	474.8614807128906	-435.3689270019531	770.9241333007812	385.0325622558594	-432.6911315917969	866.1456909179688	414.1548156738281	-492.3906555175781	849.5426025390625	464.2888793945312	-664.770263671875	1681.625122070312	187.1564025878906	-530.7384643554688	1719.086059570312	18.35023307800293	-503.0126953125	1731.293579101562	144.7984924316406	-701.2076416015625	1676.998779296875	53.08164978027344	-692.9593505859375	999.1290893554688	-12.78758525848389	-603.9549560546875	999.112548828125	351.7527770996094	-528.5499267578125	1029.4384765625	288.4867858886719	-562.3226318359375	1029.278076171875	33.22503662109375	-518.0638427734375	515.3960571289062	3.059505462646484	-568.4990234375	650.4108276367188	-22.34100723266602	-484.2964477539062	33.95924758911133	-3.950945854187012	-504.2685852050781	283.5651550292969	-12.65352153778076	-290.4921875	122.4991912841797	2.606753587722778	-329.6786193847656	106.9515686035156	56.49679946899414	-379.6944274902344	54.24618530273438	-44.58991241455078	-532.7171630859375	28.36141967773438	69.38127899169922	-647.940185546875	498.638671875	325.8707275390625	-575.0447998046875	764.1534423828125	349.9389038085938	-843.0345458984375	35.54918670654297	331.0893859863281	-664.3187866210938	374.4437255859375	313.798828125	-625.1453247070312	54.26787185668945	298.6869201660156	-675.6624145507812	45.74654006958008	253.9295043945312	-729.46484375	32.49745559692383	367.965576171875	-892.8496704101562	39.89491653442383	260.8357238769531	
